# Blender 3.6.4
# www.blender.org
mtllib warAxe.mtl.mtl
o Cube
v 0.230954 3.066059 -0.042327
v 0.230954 2.266059 -0.042327
v 0.230954 3.066059 0.091007
v 0.230954 2.266059 0.091007
v -0.069046 3.066059 -0.042327
v -0.149046 2.266059 -0.042327
v -0.069046 3.066059 0.091007
v -0.149046 2.266059 0.091007
v 0.972559 3.229624 0.019150
v 0.972559 3.229624 0.037903
v 1.093509 2.895065 0.037903
v 1.077495 2.705775 0.019539
v 0.697177 2.004864 -0.003025
v 1.077495 2.705775 0.038292
v 0.697177 2.004864 0.071985
v 0.524168 2.274143 -0.045755
v 0.524168 2.274143 0.087578
v 1.085502 2.800420 0.019345
v 1.085502 2.800420 0.038097
v 0.972559 3.229624 0.019150
v 1.093509 2.895065 0.019150
v 0.972559 3.229624 0.037903
v 1.093509 2.895065 0.037903
v 0.707229 1.545612 0.041287
v 0.707229 1.545612 0.022534
v 1.003611 2.166466 0.039070
v 1.003611 2.166466 0.020317
v 1.085502 2.800420 0.019345
v 1.077495 2.705775 0.019539
v 0.697177 2.004864 -0.003025
v 1.085502 2.800420 0.038097
v 1.077495 2.705775 0.038292
v 0.697177 2.004864 0.071985
v 0.911478 2.697249 0.064136
v 0.739332 3.178184 0.037903
v 0.739332 3.178184 0.019150
v 0.911478 2.697249 -0.010875
v 0.911478 2.485346 0.067671
v 0.911478 2.485346 -0.007339
v 0.911478 2.634911 -0.010948
v 0.911478 2.634911 0.064063
v 0.911478 1.971214 0.039767
v 0.911478 1.971214 0.021014
v 0.911478 2.485346 0.067671
v 0.911478 2.485346 -0.007339
v 0.202925 2.266059 -0.042327
v 0.202925 3.066059 0.091007
v 0.202925 2.266059 0.091007
v 0.202925 3.066059 -0.042327
v 0.016939 2.266059 -0.042327
v 0.016939 3.066059 0.091007
v 0.016939 2.266059 0.091007
v 0.016939 3.066059 -0.042327
v 0.230954 2.666059 -0.042327
v -0.169046 2.666059 0.091007
v 0.230954 2.666059 0.091007
v -0.169046 2.666059 -0.042327
v 1.033034 3.062344 0.037903
v 1.032892 3.062344 0.019150
v 1.033034 3.062344 0.037903
v 0.202925 2.666059 -0.042327
v 0.202925 2.666059 0.091007
v 0.016939 2.666059 -0.082327
v 0.016939 2.666059 0.131007
v -0.149046 2.266059 0.024340
v 0.230954 3.066059 0.024340
v -0.169046 3.066059 0.024340
v 0.230954 2.266059 0.024340
v 0.972559 3.229624 0.028526
v 0.697177 2.004864 0.034480
v 0.524168 2.274143 0.020911
v 0.992559 3.229624 0.028526
v 1.113509 2.895065 0.028526
v 0.727229 1.545612 0.031910
v 1.023611 2.166466 0.029694
v 0.697177 2.004864 0.034480
v 0.931478 1.971214 0.030391
v 0.739332 3.178184 0.028526
v 0.202925 2.266059 0.024340
v 0.202925 3.066059 0.024340
v 1.053034 3.062344 0.028526
v -0.209046 2.666059 0.024340
v -0.149046 2.266059 -0.042327
v -0.069046 3.066059 0.091007
v -0.149046 2.266059 0.091007
v -0.069046 3.066059 -0.042327
v -0.169046 2.666059 -0.042327
v -0.169046 2.666059 0.091007
v -0.149046 2.266059 0.024340
v 0.140716 2.266059 0.091007
v 0.140716 3.066059 -0.042327
v 0.140716 2.266059 -0.042327
v 0.140716 3.066059 0.091007
v 0.140716 2.666059 0.104386
v 0.140716 2.666059 -0.055706
v 0.140716 2.266059 0.024340
v -0.066053 2.266059 0.090198
v -0.026053 3.066059 -0.042327
v -0.076053 2.666059 -0.074327
v -0.066053 2.266059 -0.042327
v -0.026053 3.066059 0.091007
v -0.076053 2.666059 0.119007
v -0.066053 2.266059 0.024340
v -0.026053 3.066059 -0.042327
v -0.066053 2.266059 0.024340
v -0.068787 2.276537 0.070056
v -0.062185 2.272835 0.054773
v -0.068633 2.279828 0.084566
v 0.121228 2.211418 -0.019448
v 0.008853 2.211418 -0.057171
v -0.054466 2.211418 0.070785
v 0.008920 2.211418 0.105660
v 0.121154 2.211418 0.068021
v 0.136646 2.211418 0.024316
v -0.054218 2.211418 -0.022602
v -0.072179 2.211418 0.024324
v 0.121228 2.211418 -0.019448
v 0.008853 2.211418 -0.057171
v -0.054466 2.211418 0.070785
v 0.008920 2.211418 0.105660
v 0.121154 2.211418 0.068021
v 0.136646 2.211418 0.024316
v -0.054218 2.211418 -0.022602
v -0.072179 2.211418 0.024324
v 0.121228 0.597901 -0.019448
v 0.008853 0.597902 -0.057171
v -0.054466 0.597901 0.070785
v 0.008920 0.597902 0.105660
v 0.121154 0.597901 0.068021
v 0.136646 0.597901 0.024316
v -0.054218 0.597901 -0.022602
v -0.072179 0.597901 0.024324
v 0.121228 -0.542702 -0.019448
v 0.008853 -0.542702 -0.057171
v -0.054466 -0.542702 0.070785
v 0.008920 -0.542702 0.105660
v 0.121154 -0.542702 0.068021
v 0.136646 -0.542702 0.024316
v -0.054218 -0.542702 -0.022602
v -0.072179 -0.542702 0.024324
v 0.184406 -0.680124 -0.048735
v -0.003308 -0.680124 -0.111748
v -0.109078 -0.680124 0.101993
v -0.003196 -0.680124 0.160249
v 0.184283 -0.680124 0.097375
v 0.210161 -0.680124 0.024370
v -0.108664 -0.680124 -0.054003
v -0.138667 -0.680124 0.024383
v -0.026053 3.066059 -0.042327
v -0.069046 3.066059 -0.042327
v -0.026053 3.066059 0.091007
v 0.140716 3.066059 0.091007
v 0.140716 3.066059 -0.042327
v 0.016939 3.066059 -0.042327
v -0.069046 3.066059 0.091007
v 0.016939 3.066059 0.091007
v 0.016939 3.066059 0.091007
v -0.026053 3.066059 0.091007
v -0.069046 3.066059 0.091007
v 0.016939 3.066059 -0.042327
v 0.140716 3.066059 -0.042327
v -0.069046 3.066059 -0.042327
v -0.026053 3.066059 -0.042327
v 0.140716 3.066059 0.091007
v 0.016939 3.066059 0.091007
v -0.026053 3.066059 0.091007
v -0.069046 3.066059 0.091007
v 0.016939 3.066059 -0.042327
v 0.140716 3.066059 -0.042327
v -0.069046 3.066059 -0.042327
v -0.026053 3.066059 -0.042327
v 0.140716 3.066059 0.091007
v 0.016939 3.066059 0.091007
v -0.026053 3.066059 0.091007
v -0.069046 3.066059 0.091007
v 0.016939 3.066059 -0.042327
v 0.140716 3.066059 -0.042327
v -0.069046 3.066059 -0.042327
v -0.026053 3.066059 -0.042327
v 0.140716 3.066059 0.091007
v 0.016939 3.066059 0.091007
v -0.026053 3.066059 0.091007
v -0.069046 3.066059 0.091007
v 0.016939 3.066059 -0.042327
v 0.140716 3.066059 -0.042327
v -0.069046 3.066059 -0.042327
v -0.026053 3.066059 -0.042327
v 0.140716 3.066059 0.091007
v 0.016939 3.066059 0.091007
v -0.026053 3.066059 0.091007
v -0.069046 3.066059 0.091007
v 0.016939 3.066059 -0.042327
v 0.140716 3.066059 -0.042327
v -0.069046 3.066059 -0.042327
v -0.026053 3.066059 -0.042327
v 0.140716 3.066059 0.091007
v 0.016939 3.066059 0.091007
v -0.026053 3.066059 0.091007
v -0.069046 3.066059 0.091007
v 0.016939 3.066059 -0.042327
v 0.140716 3.066059 -0.042327
v -0.069046 3.066059 -0.042327
v -0.026053 3.066059 -0.042327
v 0.140716 3.066059 0.091007
v 0.016716 3.070059 0.079541
v -0.018883 3.070059 0.079541
v -0.054482 3.070059 0.079541
v 0.016716 3.070059 -0.030861
v 0.119205 3.070059 -0.030861
v -0.054482 3.070059 -0.030861
v -0.018883 3.070059 -0.030861
v 0.119205 3.070059 0.079541
v 0.016924 3.120059 0.090194
v -0.025545 3.120059 0.090194
v -0.068014 3.120059 0.090194
v 0.016924 3.120059 -0.041514
v 0.139191 3.120059 -0.041514
v -0.068014 3.120059 -0.041514
v -0.025545 3.120059 -0.041514
v 0.139191 3.120059 0.090194
vn -0.0000 1.0000 -0.0000
vn -0.8544 0.0854 -0.5126
vn -0.0000 -1.0000 -0.0000
vn -0.0000 -0.0000 -1.0000
vn 0.1522 0.0312 0.9879
vn -0.2154 0.9765 -0.0000
vn 0.0382 0.0241 0.9990
vn -0.8413 -0.5405 -0.0000
vn -0.0046 -0.0017 -1.0000
vn 0.0276 -0.9996 -0.0000
vn 0.0617 -0.0012 0.9981
vn 0.4196 0.1517 0.8950
vn -0.4243 -0.0328 0.9049
vn 0.4160 -0.1994 -0.8872
vn 0.4242 -0.0377 -0.9048
vn 0.1077 -0.0550 -0.9927
vn 0.4157 -0.2027 -0.8866
vn -0.0143 0.0951 -0.9954
vn 0.1359 -0.0695 -0.9883
vn 0.0425 0.0774 -0.9961
vn 0.1206 -0.0541 0.9912
vn 0.2102 0.0327 -0.9771
vn -0.0000 -0.0000 1.0000
vn -0.0854 0.0901 -0.9923
vn 0.2093 0.0973 0.9730
vn -0.0000 -0.0334 0.9994
vn -0.0000 -0.0995 -0.9950
vn -0.9988 -0.0499 -0.0000
vn 0.0363 0.0674 0.9971
vn 0.4196 0.1517 -0.8950
vn 0.4162 -0.1966 0.8878
vn 0.4242 -0.0340 0.9049
vn 0.4165 -0.1933 0.8884
vn -0.9998 -0.0219 -0.0000
vn 0.4172 0.1508 -0.8962
vn -0.8544 0.0854 0.5126
vn 0.0097 -0.0716 0.9974
vn -0.2876 0.0719 0.9551
vn -0.0000 -0.0334 -0.9994
vn 0.2102 0.0327 0.9771
vn 0.2093 0.0973 -0.9730
vn -0.1275 0.0851 0.9882
vn -0.0097 -0.0995 0.9950
vn -0.0000 -0.0797 -0.9968
vn -0.3243 0.0811 -0.9425
vn -0.9782 -0.2075 -0.0000
vn 0.9402 -0.0702 0.3333
vn -0.4610 0.2923 0.8379
vn 0.3114 0.2059 -0.9277
vn 0.9419 -0.3359 -0.0000
vn -0.0000 -0.3395 -0.9406
vn -0.9288 0.1042 -0.3555
vn -0.0000 -0.3878 0.9218
vn -0.9339 -0.0000 -0.3575
vn -0.4806 -0.0000 -0.8769
vn 0.9425 -0.0000 0.3341
vn 0.3180 -0.0000 0.9481
vn 0.3182 -0.0000 -0.9480
vn -0.9344 -0.0000 0.3562
vn 0.9432 -0.0000 -0.3323
vn -0.4821 -0.0000 0.8761
vn 0.3005 0.3290 -0.8952
vn -0.8514 0.4121 0.3246
vn -0.4477 0.3640 -0.8168
vn 0.8421 0.4504 -0.2967
vn -0.4490 0.3638 0.8161
vn -0.8511 0.4117 -0.3258
vn 0.8416 0.4503 0.2983
vn 0.3002 0.3292 0.8953
vn -0.2648 0.9643 -0.0000
vn -0.0000 -0.2084 -0.9780
vn -0.0000 0.9442 -0.3294
vn -0.0000 0.9442 0.3294
vn 0.1828 0.9831 -0.0000
vn -0.0000 -0.2084 0.9780
vn 0.9286 -0.3712 -0.0000
vn -0.9653 -0.2612 -0.0000
vn -0.5494 0.1374 -0.8242
vn 0.1434 0.0239 0.9894
vn 0.0149 -0.0020 -0.9999
vn -0.0000 -0.0039 -1.0000
vn -0.0111 0.0505 0.9987
vn 0.1539 -0.0012 0.9881
vn 0.0046 0.0017 1.0000
vn 0.0613 -0.0184 0.9979
vn 0.1903 -0.0237 -0.9814
vn 0.0286 0.0725 -0.9970
vn 0.1801 0.0012 -0.9836
vn 0.1791 0.0213 -0.9836
vn 0.0104 0.0458 0.9989
vn 0.4239 -0.0537 -0.9041
vn 0.6735 -0.0933 -0.7332
vn 0.0991 -0.0531 -0.9937
vn 0.1963 -0.0283 -0.9801
vn -0.0000 -0.0036 -1.0000
vn 0.4157 -0.2026 -0.8867
vn 0.0884 0.0012 -0.9961
vn 0.1116 -0.0240 -0.9935
vn 0.0462 -0.0000 -0.9989
vn 0.1201 -0.0000 -0.9928
vn 0.2092 -0.0272 0.9775
vn 0.1596 -0.0624 0.9852
vn -0.0000 0.0036 1.0000
vn -0.0000 0.0995 -0.9950
vn -0.0000 0.0334 0.9994
vn 0.2093 -0.0973 0.9730
vn -0.0854 -0.0816 -0.9930
vn 0.2102 -0.0327 -0.9771
vn -0.8505 -0.1276 -0.5103
vn 0.1039 -0.0000 0.9946
vn 0.0395 -0.0000 0.9992
vn -0.8505 -0.1276 0.5103
vn 0.4172 0.1512 -0.8962
vn 0.4238 -0.0568 0.9040
vn 0.5971 -0.0724 0.7989
vn -0.4244 -0.0227 -0.9052
vn 0.4196 0.1513 -0.8950
vn -0.5494 0.1374 0.8242
vn -0.2883 -0.0144 0.9574
vn -0.0000 0.0698 0.9976
vn 0.2093 -0.0973 -0.9730
vn 0.2102 -0.0327 0.9771
vn -0.0000 0.0334 -0.9994
vn -0.0000 0.0995 0.9950
vn -0.1276 -0.0744 0.9890
vn -0.3253 -0.0163 -0.9455
vn -0.0000 0.0797 -0.9968
vn -0.9293 0.1041 0.3543
vn 0.9415 -0.3371 -0.0000
vn -0.0092 -0.3365 0.9416
vn -0.0000 -0.3862 -0.9224
vn 0.9409 -0.0699 -0.3315
vn -0.4592 0.2955 -0.8377
vn -0.9773 -0.2117 -0.0000
vn 0.3113 0.2033 0.9283
vn 0.3005 0.3290 -0.8953
vt 0.500000 1.000000
vt 0.625000 1.000000
vt 0.625000 0.125000
vt 0.500000 0.250000
vt 0.500000 0.125000
vt 0.375000 0.625000
vt 0.357482 0.750000
vt 0.357482 0.625000
vt 0.625000 0.482482
vt 0.500000 0.500000
vt 0.500000 0.482482
vt 0.375000 0.750000
vt 0.625000 0.750000
vt 0.625000 0.625000
vt 0.625000 0.500000
vt 0.375000 0.500000
vt 0.500000 0.750000
vt 0.500000 0.625000
vt 0.375000 0.500000
vt 0.375000 0.500000
vt 0.625000 0.443601
vt 0.500000 0.443601
vt 0.318601 0.750000
vt 0.318601 0.625000
vt 0.500000 0.767518
vt 0.642518 0.625000
vt 0.625000 0.308120
vt 0.500000 0.366241
vt 0.500000 0.308120
vt 0.500000 0.806399
vt 0.625000 0.883759
vt 0.500000 0.883759
vt 0.375000 0.883759
vt 0.375000 0.806399
vt 0.375000 0.308120
vt 0.375000 0.366241
vt 0.375000 0.767518
vt 0.375000 0.443601
vt 0.375000 0.482482
vt 0.375000 0.125000
vt 0.375000 0.250000
vt 0.375000 1.000000
vt 0.375000 1.000000
vt 0.500000 0.000000
vt 0.375000 0.000000
vt 0.875000 0.500000
vt 0.875000 0.625000
vt 0.875000 0.750000
vt 0.642518 0.500000
vt 0.357482 0.500000
vt 0.318601 0.500000
vt 0.125000 0.500000
vt 0.125000 0.625000
vt 0.681399 0.750000
vt 0.500000 0.941880
vt 0.375000 0.941880
vt 0.375000 0.250000
vt 0.625000 0.250000
vt 0.125000 0.750000
vt 0.625000 0.806399
vt 0.625000 0.366241
vt 0.625000 0.941880
vt 0.183120 0.500000
vt 0.183120 0.750000
vt 0.183120 0.625000
vt 0.681399 0.500000
vt 0.375000 0.500000
vt 0.625000 0.767518
vt 0.642518 0.750000
vt 0.625000 0.000000
vt 0.241241 0.750000
vt 0.241241 0.500000
s 0
usemtl Material
f 88/1/1 7/2/1 55/1/1
f 67/3/2 57/4/2 82/5/2
f 68/6/3 48/7/3 79/8/3
f 49/9/4 54/10/4 61/11/4
f 34/12/5 14/12/5 10/13/5
f 35/13/6 69/14/6 78/14/6
f 38/12/1 33/12/1 44/12/1
f 9/15/1 20/15/1 59/10/1
f 19/12/1 32/12/1 31/12/1
f 17/12/7 38/12/7 41/12/7
f 39/16/1 29/16/1 45/16/1
f 71/6/8 13/16/8 70/6/8
f 12/16/1 28/16/1 29/16/1
f 70/6/1 30/16/1 76/6/1
f 69/14/1 22/13/1 72/14/1
f 58/17/1 23/12/1 60/17/1
f 59/10/9 21/16/9 18/16/9
f 11/12/1 31/12/1 23/12/1
f 2/16/10 71/6/10 68/6/10
f 34/12/11 17/12/11 41/12/11
f 72/14/12 60/17/12 81/18/12
f 76/6/13 25/16/13 74/6/13
f 77/6/14 27/16/14 75/6/14
f 73/6/15 29/16/15 28/16/15
f 45/16/16 27/16/16 25/16/16
f 22/13/1 20/15/1 10/13/1
f 74/6/17 43/19/17 77/6/17
f 37/20/18 16/16/18 2/16/18
f 16/16/19 39/16/19 13/16/19
f 13/16/1 45/16/1 30/16/1
f 14/12/1 44/12/1 32/12/1
f 66/14/6 35/13/6 78/14/6
f 54/10/20 36/15/20 37/20/20
f 44/12/21 24/12/21 26/12/21
f 91/21/22 61/11/22 95/22/22
f 79/8/3 90/23/3 96/24/3
f 3/13/23 62/25/23 56/17/23
f 80/26/1 3/13/1 66/14/1
f 98/27/24 63/28/24 99/29/24
f 94/30/25 51/31/25 64/32/25
f 94/30/26 52/33/26 90/34/26
f 100/35/27 63/28/27 50/36/27
f 56/17/23 48/37/23 4/12/23
f 92/38/4 61/11/4 46/39/4
f 81/18/12 23/12/12 73/6/12
f 10/13/1 60/17/1 22/13/1
f 61/11/4 2/16/4 46/39/4
f 65/40/28 57/4/28 6/41/28
f 85/42/1 55/1/1 8/43/1
f 56/17/29 34/12/29 35/13/29
f 55/44/28 65/40/28 8/45/28
f 21/16/30 81/18/30 73/6/30
f 86/46/1 67/47/1 7/48/1
f 49/49/1 66/14/1 1/15/1
f 46/50/3 96/24/3 92/51/3
f 66/14/6 36/15/6 1/15/6
f 74/6/31 42/12/31 24/12/31
f 32/12/32 73/6/32 31/12/32
f 77/6/33 26/12/33 42/12/33
f 76/6/34 24/12/34 33/12/34
f 59/10/35 72/14/35 81/18/35
f 68/6/10 17/12/10 4/12/10
f 9/15/1 72/14/1 20/15/1
f 15/12/1 76/6/1 33/12/1
f 71/6/8 15/12/8 17/12/8
f 78/14/6 9/15/6 36/15/6
f 2/16/3 79/8/3 46/50/3
f 55/44/36 67/3/36 82/5/36
f 6/52/1 89/53/1 65/53/1
f 93/54/1 80/26/1 49/49/1
f 102/55/37 85/42/37 97/56/37
f 6/41/1 87/4/1 83/57/1
f 57/4/1 86/58/1 87/4/1
f 65/53/1 85/59/1 8/59/1
f 102/55/38 84/2/38 88/1/38
f 50/36/39 95/22/39 92/38/39
f 62/25/23 90/34/23 48/37/23
f 62/25/40 93/60/40 94/30/40
f 53/61/41 95/22/41 63/28/41
f 64/32/42 101/62/42 102/55/42
f 64/32/43 97/56/43 52/33/43
f 100/63/3 89/53/3 83/52/3
f 83/57/44 99/29/44 100/35/44
f 86/58/45 99/29/45 87/4/45
f 89/53/3 97/64/3 85/59/3
f 51/31/1 152/60/1 156/31/1
f 103/65/46 111/64/46 97/64/46
f 113/34/1 120/33/1 121/34/1
f 96/24/47 113/23/47 114/24/47
f 52/33/48 111/56/48 112/33/48
f 50/36/49 109/38/49 110/36/49
f 96/24/50 109/51/50 92/51/50
f 50/36/51 115/35/51 100/35/51
f 103/65/52 115/63/52 116/65/52
f 52/33/53 113/34/53 90/34/53
f 123/63/54 132/65/54 124/65/54
f 110/36/1 117/38/1 118/36/1
f 111/64/1 124/65/1 119/64/1
f 115/35/1 118/36/1 123/35/1
f 109/51/1 122/24/1 117/51/1
f 112/33/1 119/56/1 120/33/1
f 116/65/1 123/63/1 124/65/1
f 114/24/1 121/23/1 122/24/1
f 126/36/55 139/35/55 131/35/55
f 121/23/56 130/24/56 122/24/56
f 121/34/57 128/33/57 129/34/57
f 117/38/58 126/36/58 118/36/58
f 124/65/59 127/64/59 119/64/59
f 123/35/55 126/36/55 131/35/55
f 122/24/60 125/51/60 117/51/60
f 119/56/61 128/33/61 120/33/61
f 133/38/62 142/36/62 134/36/62
f 130/24/60 133/51/60 125/51/60
f 127/56/61 136/33/61 128/33/61
f 132/65/54 139/63/54 140/65/54
f 129/23/56 138/24/56 130/24/56
f 128/33/57 137/34/57 129/34/57
f 125/38/58 134/36/58 126/36/58
f 132/65/59 135/64/59 127/64/59
f 147/63/3 141/51/3 145/23/3
f 140/65/63 143/64/63 135/64/63
f 139/35/64 142/36/64 147/35/64
f 138/24/65 141/51/65 133/51/65
f 135/56/66 144/33/66 136/33/66
f 140/65/67 147/63/67 148/65/67
f 138/24/68 145/23/68 146/24/68
f 137/34/69 144/33/69 145/34/69
f 86/46/1 155/48/1 150/46/1
f 53/61/1 149/27/1 154/61/1
f 91/21/1 154/61/1 153/21/1
f 164/54/1 169/66/1 172/54/1
f 93/54/1 153/66/1 152/54/1
f 98/27/1 150/58/1 149/27/1
f 84/2/1 151/62/1 155/2/1
f 150/46/1 159/48/1 162/46/1
f 101/62/1 156/31/1 151/62/1
f 149/27/1 162/58/1 163/27/1
f 153/21/1 160/61/1 161/21/1
f 152/54/1 161/66/1 164/54/1
f 151/62/1 157/31/1 158/62/1
f 156/31/1 164/60/1 157/31/1
f 154/61/1 163/27/1 160/61/1
f 155/2/1 158/62/1 159/2/1
f 171/27/1 178/58/1 179/27/1
f 157/31/1 172/60/1 165/31/1
f 161/21/1 168/61/1 169/21/1
f 158/62/1 165/31/1 166/62/1
f 160/61/1 171/27/1 168/61/1
f 162/46/1 167/48/1 170/46/1
f 163/27/1 170/58/1 171/27/1
f 159/2/1 166/62/1 167/2/1
f 176/61/1 187/27/1 184/61/1
f 167/2/1 174/62/1 175/2/1
f 172/54/1 177/66/1 180/54/1
f 165/31/1 180/60/1 173/31/1
f 169/21/1 176/61/1 177/21/1
f 166/62/1 173/31/1 174/62/1
f 168/61/1 179/27/1 176/61/1
f 170/46/1 175/48/1 178/46/1
f 181/31/1 196/60/1 189/31/1
f 178/46/1 183/48/1 186/46/1
f 179/27/1 186/58/1 187/27/1
f 175/2/1 182/62/1 183/2/1
f 180/54/1 185/66/1 188/54/1
f 173/31/1 188/60/1 181/31/1
f 177/21/1 184/61/1 185/21/1
f 174/62/1 181/31/1 182/62/1
f 196/54/1 201/66/1 204/54/1
f 185/21/1 192/61/1 193/21/1
f 182/62/1 189/31/1 190/62/1
f 184/61/1 195/27/1 192/61/1
f 186/46/1 191/48/1 194/46/1
f 187/27/1 194/58/1 195/27/1
f 183/2/1 190/62/1 191/2/1
f 188/54/1 193/66/1 196/54/1
f 199/48/70 210/46/70 202/46/70
f 189/31/1 204/60/1 197/31/1
f 193/21/1 200/61/1 201/21/1
f 190/62/1 197/31/1 198/62/1
f 192/61/1 203/27/1 200/61/1
f 194/46/1 199/48/1 202/46/1
f 195/27/1 202/58/1 203/27/1
f 191/2/1 198/62/1 199/2/1
f 210/58/71 219/27/71 211/27/71
f 203/27/72 210/58/72 211/27/72
f 198/62/73 207/2/73 199/2/73
f 201/66/74 212/54/74 204/54/74
f 197/31/73 212/60/73 205/31/73
f 200/61/72 209/21/72 201/21/72
f 197/31/73 206/62/73 198/62/73
f 200/61/72 211/27/72 208/61/72
f 214/62/1 213/31/1 216/61/1
f 207/2/75 214/62/75 215/2/75
f 209/66/76 220/54/76 212/54/76
f 212/60/75 213/31/75 205/31/75
f 209/21/71 216/61/71 217/21/71
f 206/62/75 213/31/75 214/62/75
f 211/27/71 216/61/71 208/61/71
f 207/48/77 218/46/77 210/46/77
f 88/1/1 84/2/1 7/2/1
f 67/3/78 5/58/78 57/4/78
f 68/6/3 4/12/3 48/7/3
f 49/9/4 1/15/4 54/10/4
f 41/12/79 38/12/79 14/12/79
f 14/12/80 19/12/80 11/12/80
f 11/12/81 58/17/81 10/13/81
f 10/13/82 35/13/82 34/12/82
f 34/12/83 41/12/83 14/12/83
f 14/12/84 11/12/84 10/13/84
f 35/13/6 10/13/6 69/14/6
f 38/12/1 15/12/1 33/12/1
f 19/12/1 14/12/1 32/12/1
f 17/12/85 15/12/85 38/12/85
f 39/16/1 12/16/1 29/16/1
f 71/6/8 16/16/8 13/16/8
f 12/16/1 18/16/1 28/16/1
f 70/6/1 13/16/1 30/16/1
f 69/14/1 10/13/1 22/13/1
f 58/17/1 11/12/1 23/12/1
f 36/15/4 9/15/4 59/10/4
f 12/16/86 39/16/86 40/67/86
f 37/20/87 36/15/87 59/10/87
f 12/16/88 40/67/88 37/20/88
f 12/16/89 37/20/89 59/10/89
f 21/16/1 28/16/1 18/16/1
f 18/16/9 12/16/9 59/10/9
f 11/12/1 19/12/1 31/12/1
f 2/16/10 16/16/10 71/6/10
f 34/12/90 4/12/90 17/12/90
f 72/14/12 22/13/12 60/17/12
f 76/6/34 30/16/34 25/16/34
f 77/6/14 43/19/14 27/16/14
f 73/6/91 75/6/91 27/16/91
f 73/6/92 27/16/92 29/16/92
f 28/16/15 21/16/15 73/6/15
f 25/16/93 30/16/93 45/16/93
f 45/16/94 29/16/94 27/16/94
f 27/16/95 43/19/95 25/16/95
f 22/13/1 9/15/1 20/15/1
f 74/6/96 25/16/96 43/19/96
f 37/20/97 40/67/97 16/16/97
f 16/16/98 40/67/98 39/16/98
f 13/16/1 39/16/1 45/16/1
f 14/12/1 38/12/1 44/12/1
f 66/14/6 3/13/6 35/13/6
f 37/20/99 2/16/99 54/10/99
f 54/10/100 1/15/100 36/15/100
f 26/12/101 32/12/101 44/12/101
f 44/12/102 33/12/102 24/12/102
f 24/12/103 42/12/103 26/12/103
f 91/21/4 49/9/4 61/11/4
f 79/8/3 48/7/3 90/23/3
f 3/13/23 47/68/23 62/25/23
f 80/26/1 47/69/1 3/13/1
f 98/27/104 53/61/104 63/28/104
f 94/30/105 93/60/105 51/31/105
f 94/30/106 64/32/106 52/33/106
f 100/35/107 99/29/107 63/28/107
f 56/17/23 62/25/23 48/37/23
f 92/38/108 95/22/108 61/11/108
f 81/18/12 60/17/12 23/12/12
f 10/13/1 58/17/1 60/17/1
f 61/11/4 54/10/4 2/16/4
f 65/40/109 82/5/109 57/4/109
f 85/42/1 88/1/1 55/1/1
f 35/13/110 3/13/110 56/17/110
f 56/17/111 4/12/111 34/12/111
f 55/44/112 82/5/112 65/40/112
f 21/16/113 59/10/113 81/18/113
f 86/46/1 5/46/1 67/47/1
f 7/48/1 84/48/1 86/46/1
f 49/49/1 80/26/1 66/14/1
f 46/50/3 79/8/3 96/24/3
f 66/14/6 78/14/6 36/15/6
f 74/6/31 77/6/31 42/12/31
f 32/12/114 26/12/114 75/6/114
f 73/6/32 23/12/32 31/12/32
f 32/12/115 75/6/115 73/6/115
f 77/6/33 75/6/33 26/12/33
f 76/6/116 74/6/116 24/12/116
f 59/10/117 20/15/117 72/14/117
f 68/6/10 71/6/10 17/12/10
f 9/15/1 69/14/1 72/14/1
f 15/12/1 70/6/1 76/6/1
f 71/6/8 70/6/8 15/12/8
f 78/14/6 69/14/6 9/15/6
f 2/16/3 68/6/3 79/8/3
f 55/44/118 7/70/118 67/3/118
f 6/52/1 83/52/1 89/53/1
f 49/49/1 91/66/1 93/54/1
f 93/54/1 47/69/1 80/26/1
f 102/55/119 88/1/119 85/42/119
f 6/41/1 57/4/1 87/4/1
f 57/4/1 5/58/1 86/58/1
f 65/53/1 89/53/1 85/59/1
f 102/55/120 101/62/120 84/2/120
f 50/36/121 63/28/121 95/22/121
f 62/25/122 94/30/122 90/34/122
f 62/25/23 47/68/23 93/60/23
f 53/61/123 91/21/123 95/22/123
f 64/32/124 51/31/124 101/62/124
f 64/32/125 102/55/125 97/56/125
f 100/63/3 103/65/3 89/53/3
f 83/57/126 87/4/126 99/29/126
f 86/58/127 98/27/127 99/29/127
f 89/53/3 103/65/3 97/64/3
f 51/31/1 93/60/1 152/60/1
f 103/65/128 116/65/128 111/64/128
f 113/34/1 112/33/1 120/33/1
f 96/24/129 90/23/129 113/23/129
f 52/33/130 97/56/130 111/56/130
f 50/36/131 92/38/131 109/38/131
f 96/24/132 114/24/132 109/51/132
f 50/36/133 110/36/133 115/35/133
f 103/65/134 100/63/134 115/63/134
f 52/33/135 112/33/135 113/34/135
f 123/63/54 131/63/54 132/65/54
f 110/36/1 109/38/1 117/38/1
f 111/64/1 116/65/1 124/65/1
f 115/35/1 110/36/1 118/36/1
f 109/51/1 114/24/1 122/24/1
f 112/33/1 111/56/1 119/56/1
f 116/65/1 115/63/1 123/63/1
f 114/24/1 113/23/1 121/23/1
f 126/36/55 134/36/55 139/35/55
f 121/23/56 129/23/56 130/24/56
f 121/34/57 120/33/57 128/33/57
f 117/38/58 125/38/58 126/36/58
f 124/65/59 132/65/59 127/64/59
f 123/35/55 118/36/55 126/36/55
f 122/24/60 130/24/60 125/51/60
f 119/56/61 127/56/61 128/33/61
f 133/38/136 141/38/136 142/36/136
f 130/24/60 138/24/60 133/51/60
f 127/56/61 135/56/61 136/33/61
f 132/65/54 131/63/54 139/63/54
f 129/23/56 137/23/56 138/24/56
f 128/33/57 136/33/57 137/34/57
f 125/38/58 133/38/58 134/36/58
f 132/65/59 140/65/59 135/64/59
f 145/23/3 144/71/3 143/64/3
f 143/64/3 148/65/3 147/63/3
f 147/63/3 142/72/3 141/51/3
f 141/51/3 146/24/3 145/23/3
f 145/23/3 143/64/3 147/63/3
f 140/65/63 148/65/63 143/64/63
f 139/35/64 134/36/64 142/36/64
f 138/24/65 146/24/65 141/51/65
f 135/56/66 143/56/66 144/33/66
f 140/65/67 139/63/67 147/63/67
f 138/24/68 137/23/68 145/23/68
f 137/34/69 136/33/69 144/33/69
f 86/46/1 84/48/1 155/48/1
f 53/61/1 98/27/1 149/27/1
f 91/21/1 53/61/1 154/61/1
f 164/54/1 161/66/1 169/66/1
f 93/54/1 91/66/1 153/66/1
f 98/27/1 86/58/1 150/58/1
f 84/2/1 101/62/1 151/62/1
f 150/46/1 155/48/1 159/48/1
f 101/62/1 51/31/1 156/31/1
f 149/27/1 150/58/1 162/58/1
f 153/21/1 154/61/1 160/61/1
f 152/54/1 153/66/1 161/66/1
f 151/62/1 156/31/1 157/31/1
f 156/31/1 152/60/1 164/60/1
f 154/61/1 149/27/1 163/27/1
f 155/2/1 151/62/1 158/62/1
f 171/27/1 170/58/1 178/58/1
f 157/31/1 164/60/1 172/60/1
f 161/21/1 160/61/1 168/61/1
f 158/62/1 157/31/1 165/31/1
f 160/61/1 163/27/1 171/27/1
f 162/46/1 159/48/1 167/48/1
f 163/27/1 162/58/1 170/58/1
f 159/2/1 158/62/1 166/62/1
f 176/61/1 179/27/1 187/27/1
f 167/2/1 166/62/1 174/62/1
f 172/54/1 169/66/1 177/66/1
f 165/31/1 172/60/1 180/60/1
f 169/21/1 168/61/1 176/61/1
f 166/62/1 165/31/1 173/31/1
f 168/61/1 171/27/1 179/27/1
f 170/46/1 167/48/1 175/48/1
f 181/31/1 188/60/1 196/60/1
f 178/46/1 175/48/1 183/48/1
f 179/27/1 178/58/1 186/58/1
f 175/2/1 174/62/1 182/62/1
f 180/54/1 177/66/1 185/66/1
f 173/31/1 180/60/1 188/60/1
f 177/21/1 176/61/1 184/61/1
f 174/62/1 173/31/1 181/31/1
f 196/54/1 193/66/1 201/66/1
f 185/21/1 184/61/1 192/61/1
f 182/62/1 181/31/1 189/31/1
f 184/61/1 187/27/1 195/27/1
f 186/46/1 183/48/1 191/48/1
f 187/27/1 186/58/1 194/58/1
f 183/2/1 182/62/1 190/62/1
f 188/54/1 185/66/1 193/66/1
f 199/48/70 207/48/70 210/46/70
f 189/31/1 196/60/1 204/60/1
f 193/21/1 192/61/1 200/61/1
f 190/62/1 189/31/1 197/31/1
f 192/61/1 195/27/1 203/27/1
f 194/46/1 191/48/1 199/48/1
f 195/27/1 194/58/1 202/58/1
f 191/2/1 190/62/1 198/62/1
f 210/58/71 218/58/71 219/27/71
f 203/27/72 202/58/72 210/58/72
f 198/62/73 206/62/73 207/2/73
f 201/66/74 209/66/74 212/54/74
f 197/31/73 204/60/73 212/60/73
f 200/61/72 208/61/72 209/21/72
f 197/31/73 205/31/73 206/62/73
f 200/61/72 203/27/72 211/27/72
f 219/27/1 218/46/1 215/2/1
f 219/27/1 215/2/1 214/62/1
f 220/54/1 217/21/1 216/61/1
f 216/61/1 219/27/1 214/62/1
f 213/31/1 220/54/1 216/61/1
f 207/2/75 206/62/75 214/62/75
f 209/66/76 217/66/76 220/54/76
f 212/60/75 220/60/75 213/31/75
f 209/21/71 208/61/71 216/61/71
f 206/62/75 205/31/75 213/31/75
f 211/27/71 219/27/71 216/61/71
f 207/48/77 215/48/77 218/46/77
l 105 106
l 106 107
l 107 108
